<svg width="170" height="161" viewBox="0 0 170 161" fill="none" xmlns="http://www.w3.org/2000/svg">
<path d="M60.5139 0H4.01389H3.51377C-1.68623 0 0.0137694 5 1.51377 7.5L50.0138 77.5C51.2138 79.1 50.5138 81.1667 50.0138 82L4.51389 147C1.71398 151 0.680591 153.667 0.513885 154.5C-0.686115 157.7 2.68055 158.833 4.51389 159H61.0139C63.8139 159 65.1805 157.667 65.5139 157L168.514 8C169.714 6 169.681 4.5 169.514 4V3.5C169.514 1.5 166.514 0.333333 165.014 0H111.014C107.414 0 105.514 1.33333 105.014 2L92.0139 20C89.2139 24 90.5139 27.3333 91.5139 28.5L107.014 50.5C108.214 52.5 107.847 54 107.514 54.5L104.514 58.5L66.0139 3C64.8139 1 61.8472 0.166667 60.5139 0Z" fill="black"/>
<path d="M100.014 67.5L59.5139 9.5H13.0139L59.0139 75C61.8139 78.6 60.5139 82.1667 59.5139 83.5L13.0139 150H59.5139L157.014 8.5H110.514L99.5139 25L116.014 48C118.014 50.8 117.514 54.5 117.014 56L108.514 67.5C105.714 71.5 101.681 69.1667 100.014 67.5Z" fill="white" stroke="black"/>
<path d="M142 118H89.5L83 127L102 155C104.4 158.2 107.333 160 108.5 160.5H165C172.2 160.5 170 154.833 168 152L146.5 121C145.7 119.4 143.167 118.333 142 118Z" fill="black"/>
<path d="M139.5 126.5H93.5L110.5 151.5H156.5L139.5 126.5Z" fill="white"/>
</svg>
