<svg width="630" height="126" viewBox="0 0 630 126" fill="none" xmlns="http://www.w3.org/2000/svg">
<path d="M27 54V72H72V54H27ZM9 45H18V36H72V27H63V18H18V0H72V9H81V18H90V90H18V81H9V72H2.68221e-07V54H9V45ZM179.93 18H134.93V27H125.93V63H134.93V72H179.93V18ZM125.93 0H197.93V108H188.93V117H179.93V126H125.93V108H170.93V99H179.93V90H125.93V81H116.93V72H107.93V18H116.93V9H125.93V0ZM242.859 18V27H233.859V36H287.859V27H278.859V18H242.859ZM224.859 9H233.859V0H287.859V9H296.859V18H305.859V54H233.859V63H242.859V72H287.859V90H233.859V81H224.859V72H215.859V18H224.859V9ZM341.789 90H323.789V0H395.789V9H404.789V18H413.789V90H395.789V27H386.789V18H341.789V90ZM512.719 72H521.719V90H503.719V81H494.719V72H485.719V63H467.719V72H458.719V81H449.719V90H431.719V72H440.719V63H449.719V54H458.719V36H449.719V27H440.719V18H431.719V0H449.719V9H458.719V18H467.719V27H485.719V18H494.719V9H503.719V0H521.719V18H512.719V27H503.719V36H494.719V54H503.719V63H512.719V72ZM602.648 99H611.648V90H557.648V81H548.648V72H539.648V0H557.648V63H566.648V72H611.648V0H629.648V108H620.648V117H611.648V126H557.648V108H602.648V99Z" fill="black"/>
</svg>
