<svg width="252" height="252" viewBox="0 0 252 252" fill="none" xmlns="http://www.w3.org/2000/svg">
<rect width="252" height="252" rx="50" fill="black"/>
<path d="M102.12 54H51.5898H51.1425C46.4919 54 48.0123 58.4237 49.3538 60.6355L92.7296 122.567C93.8028 123.982 93.1768 125.811 92.7296 126.548L52.037 184.056C49.5329 187.595 48.6087 189.954 48.4596 190.691C47.3864 193.522 50.3973 194.525 52.037 194.673H102.568C105.072 194.673 106.294 193.493 106.592 192.903L198.71 61.0779C199.783 59.3084 199.753 57.9813 199.604 57.5389V57.0966C199.604 55.3271 196.921 54.2949 195.579 54H147.285C144.065 54 142.366 55.1796 141.919 55.7695L130.292 71.6947C127.788 75.2336 128.951 78.1827 129.845 79.2149L143.707 98.679C144.781 100.448 144.453 101.776 144.155 102.218L141.472 105.757L107.039 56.6542C105.966 54.8847 103.313 54.1475 102.12 54Z" fill="white"/>
<path d="M137.447 113.719L101.226 62.4043H59.6389L100.779 120.354C103.283 123.539 102.12 126.695 101.226 127.875L59.6389 186.709H101.226L188.425 61.5195H146.838L137 76.1176L151.757 96.4665C153.545 98.9437 153.098 102.217 152.651 103.544L145.049 113.719C142.545 117.258 138.938 115.193 137.447 113.719Z" fill="black" stroke="black"/>
<path d="M174.997 158.398H128.044L122.231 166.361L139.223 191.134C141.37 193.965 143.993 195.557 145.037 196H195.567C202.006 196 200.039 190.986 198.25 188.479L179.022 161.053C178.306 159.637 176.041 158.693 174.997 158.398Z" fill="white"/>
<path d="M172.761 165.918H131.621L146.825 188.036H187.965L172.761 165.918Z" fill="black"/>
</svg>
